name ./resultDataOpenSim/trcMotMarkerGrf/sub10/grf-03-02.mot
datacolumns 19
datarows 20
range 0.96000000 1.03600000
endheader

                time	     ground_force_vx	     ground_force_vy	     ground_force_vz	     ground_force_px	     ground_force_py	     ground_force_pz	   l_ground_force_vx	   l_ground_force_vy	   l_ground_force_vz	   l_ground_force_px	   l_ground_force_py	   l_ground_force_pz	     ground_torque_x	     ground_torque_y	     ground_torque_z	   l_ground_torque_x	   l_ground_torque_y	   l_ground_torque_z	
          0.96000000	          0.00000000	          0.00000000	          0.00000000	          0.00000000	          0.00000000	          0.00000000	         -9.29782590	        408.11512563	         18.93491263	         -0.03855111	         -0.05000000	         -0.07774033	          0.00000000	          0.00000000	          0.00000000	          0.00000000	          0.61459722	          0.00000000	
          0.96400000	          0.00000000	          0.00000000	          0.00000000	          0.00000000	          0.00000000	          0.00000000	         -7.26477018	        400.14606824	         19.03144161	         -0.03860996	         -0.05000000	         -0.07795069	          0.00000000	          0.00000000	          0.00000000	          0.00000000	          0.58856442	          0.00000000	
          0.96800000	          0.00000000	          0.00000000	          0.00000000	          0.00000000	          0.00000000	          0.00000000	         -5.21880603	        392.45664897	         19.13111266	         -0.03873418	         -0.05000000	         -0.07814236	          0.00000000	          0.00000000	          0.00000000	          0.00000000	          0.55584022	          0.00000000	
          0.97200000	          0.00000000	          0.00000000	          0.00000000	          0.00000000	          0.00000000	          0.00000000	         -3.09889516	        385.21921372	         19.22006269	         -0.03888848	         -0.05000000	         -0.07831298	          0.00000000	          0.00000000	          0.00000000	          0.00000000	          0.51729641	          0.00000000	
          0.97600000	          0.00000000	          0.00000000	          0.00000000	          0.00000000	          0.00000000	          0.00000000	         -0.84496673	        378.64655086	         19.29140263	         -0.03908753	         -0.05000000	         -0.07849988	          0.00000000	          0.00000000	          0.00000000	          0.00000000	          0.47395404	          0.00000000	
          0.98000000	          0.00000000	          0.00000000	          0.00000000	          0.00000000	          0.00000000	          0.00000000	          1.58948284	        372.96298012	         19.34155625	         -0.03932913	         -0.05000000	         -0.07874843	          0.00000000	          0.00000000	          0.00000000	          0.00000000	          0.42689707	          0.00000000	
          0.98400000	          0.00000000	          0.00000000	          0.00000000	          0.00000000	          0.00000000	          0.00000000	          4.22391129	        368.36405840	         19.37077582	         -0.03956686	         -0.05000000	         -0.07906630	          0.00000000	          0.00000000	          0.00000000	          0.00000000	          0.37726446	          0.00000000	
          0.98800000	          0.00000000	          0.00000000	          0.00000000	          0.00000000	          0.00000000	          0.00000000	          7.03794738	        364.98742640	         19.37726384	         -0.03976224	         -0.05000000	         -0.07941859	          0.00000000	          0.00000000	          0.00000000	          0.00000000	          0.32614339	          0.00000000	
          0.99200000	          0.00000000	          0.00000000	          0.00000000	          0.00000000	          0.00000000	          0.00000000	          9.97720123	        362.92765488	         19.35127738	         -0.03990145	         -0.05000000	         -0.07975334	          0.00000000	          0.00000000	          0.00000000	          0.00000000	          0.27426978	          0.00000000	
          0.99600000	          0.00000000	          0.00000000	          0.00000000	          0.00000000	          0.00000000	          0.00000000	         12.97487645	        362.24872212	         19.28868999	         -0.03995538	         -0.05000000	         -0.08002348	          0.00000000	          0.00000000	          0.00000000	          0.00000000	          0.22163011	          0.00000000	
          1.00000000	          0.00000000	          0.00000000	          0.00000000	          0.00000000	          0.00000000	          0.00000000	         15.96703481	        362.98089494	         19.21438478	         -0.03991512	         -0.05000000	         -0.08019553	          0.00000000	          0.00000000	          0.00000000	          0.00000000	          0.16720082	          0.00000000	
          1.00400000	          0.00000000	          0.00000000	          0.00000000	          0.00000000	          0.00000000	          0.00000000	         18.90183622	        365.13390964	         19.18398961	         -0.03978532	         -0.05000000	         -0.08021793	          0.00000000	          0.00000000	          0.00000000	          0.00000000	          0.10904285	          0.00000000	
          1.00800000	          0.00000000	          0.00000000	          0.00000000	          0.00000000	          0.00000000	          0.00000000	         21.75349031	        368.70035880	         19.25845883	         -0.03956888	         -0.05000000	         -0.08008337	          0.00000000	          0.00000000	          0.00000000	          0.00000000	          0.04476149	          0.00000000	
          1.01200000	          0.00000000	          0.00000000	          0.00000000	          0.00000000	          0.00000000	          0.00000000	         24.53289614	        373.61747258	         19.47282275	         -0.03929864	         -0.05000000	         -0.07985756	          0.00000000	          0.00000000	          0.00000000	          0.00000000	         -0.02791865	          0.00000000	
          1.01600000	          0.00000000	          0.00000000	          0.00000000	          0.00000000	          0.00000000	          0.00000000	         27.27230826	        379.73279425	         19.82192641	         -0.03903693	         -0.05000000	         -0.07965103	          0.00000000	          0.00000000	          0.00000000	          0.00000000	         -0.11077995	          0.00000000	
          1.02000000	          0.00000000	          0.00000000	          0.00000000	          0.00000000	          0.00000000	          0.00000000	         29.99226354	        386.84173617	         20.26629469	         -0.03879561	         -0.05000000	         -0.07950234	          0.00000000	          0.00000000	          0.00000000	          0.00000000	         -0.20505482	          0.00000000	
          1.02400000	          0.00000000	          0.00000000	          0.00000000	          0.00000000	          0.00000000	          0.00000000	         32.69202292	        394.76853882	         20.74492398	         -0.03852358	         -0.05000000	         -0.07938651	          0.00000000	          0.00000000	          0.00000000	          0.00000000	         -0.31156385	          0.00000000	
          1.02800000	          0.00000000	          0.00000000	          0.00000000	          0.00000000	          0.00000000	          0.00000000	         35.35743516	        403.41114182	         21.19744639	         -0.03816103	         -0.05000000	         -0.07927349	          0.00000000	          0.00000000	          0.00000000	          0.00000000	         -0.43086625	          0.00000000	
          1.03200000	          0.00000000	          0.00000000	          0.00000000	          0.00000000	          0.00000000	          0.00000000	         37.95253233	        412.74093143	         21.59847376	         -0.03772024	         -0.05000000	         -0.07917298	          0.00000000	          0.00000000	          0.00000000	          0.00000000	         -0.56329922	          0.00000000	
          1.03600000	          0.00000000	          0.00000000	          0.00000000	          0.00000000	          0.00000000	          0.00000000	         40.42175023	        422.77924963	         21.97789521	         -0.03728023	         -0.05000000	         -0.07910691	          0.00000000	          0.00000000	          0.00000000	          0.00000000	         -0.70888202	          0.00000000	
